<svg width="192" height="98" viewBox="0 0 192 98" fill="none" xmlns="http://www.w3.org/2000/svg">
<g clip-path="url(#clip0_50_333)">
<g filter="url(#filter0_d_50_333)">
<path d="M25.2345 24.688V22.994H31.9545V24.688H25.2345ZM33.6291 24.688V22.994H40.3491V24.688H33.6291ZM42.0236 24.688V22.994H48.7436V24.688H42.0236ZM50.4181 24.688V22.994H57.1381V24.688H50.4181ZM58.8127 24.688V22.994H65.5327V24.688H58.8127ZM75.6017 24.688V22.994H82.3217V24.688H75.6017ZM83.9963 24.688V22.994H90.7163V24.688H83.9963ZM92.3908 24.688V22.994H99.1108V24.688H92.3908ZM100.785 24.688V22.994H107.505V24.688H100.785ZM109.18 24.688V22.994H115.9V24.688H109.18ZM125.969 24.688V22.994H132.689V24.688H125.969ZM134.363 24.688V22.994H141.083V24.688H134.363ZM151.153 24.688V22.994H157.873V24.688H151.153ZM159.547 24.688V22.994H166.267V24.688H159.547ZM19.318 39.932V27.36H21.082V39.932H19.318ZM69.6852 39.932V27.36H71.4492V39.932H69.6852ZM92.3908 40.688V38.994H99.1108V40.688H92.3908ZM120.052 39.932V27.36H121.816V39.932H120.052ZM145.236 39.932V27.36H147V39.932H145.236ZM170.42 39.932V27.36H172.184V39.932H170.42ZM19.318 55.932V43.36H21.082V55.932H19.318ZM36.1071 55.932V43.36H37.8711V55.932H36.1071ZM52.8961 55.932V43.36H54.6601V55.932H52.8961ZM69.6852 55.932V43.36H71.4492V55.932H69.6852ZM120.052 55.932V43.36H121.816V55.932H120.052ZM127.089 50.724V48.736H131.569V50.724H127.089ZM160.667 50.724V48.736H165.147V50.724H160.667ZM170.42 55.932V43.36H172.184V55.932H170.42ZM19.318 71.932V59.36H21.082V71.932H19.318ZM25.2345 72.688V70.994H31.9545V72.688H25.2345ZM36.1071 71.932V59.36H37.8711V71.932H36.1071ZM42.0236 72.688V70.994H48.7436V72.688H42.0236ZM52.8961 71.932V59.36H54.6601V71.932H52.8961ZM58.8127 72.688V70.994H65.5327V72.688H58.8127ZM69.6852 71.932V59.36H71.4492V71.932H69.6852ZM75.6017 72.688V70.994H82.3217V72.688H75.6017ZM83.9963 72.688V70.994H90.7163V72.688H83.9963ZM94.8688 71.932V59.36H96.6328V71.932H94.8688ZM100.785 72.688V70.994H107.505V72.688H100.785ZM109.18 72.688V70.994H115.9V72.688H109.18ZM120.052 71.932V59.36H121.816V71.932H120.052ZM125.969 72.688V70.994H132.689V72.688H125.969ZM134.363 72.688V70.994H141.083V72.688H134.363ZM145.236 71.932V59.36H147V71.932H145.236ZM151.153 72.688V70.994H157.873V72.688H151.153ZM159.547 72.688V70.994H166.267V72.688H159.547ZM170.42 71.932V59.36H172.184V71.932H170.42Z" fill="black"/>
</g>
</g>
<defs>
<filter id="filter0_d_50_333" x="18.318" y="21.994" width="158.866" height="55.694" filterUnits="userSpaceOnUse" color-interpolation-filters="sRGB">
<feFlood flood-opacity="0" result="BackgroundImageFix"/>
<feColorMatrix in="SourceAlpha" type="matrix" values="0 0 0 0 0 0 0 0 0 0 0 0 0 0 0 0 0 0 127 0" result="hardAlpha"/>
<feOffset dx="2" dy="2"/>
<feGaussianBlur stdDeviation="1.5"/>
<feComposite in2="hardAlpha" operator="out"/>
<feColorMatrix type="matrix" values="0 0 0 0 0.444298 0 0 0 0 0.444298 0 0 0 0 0.444298 0 0 0 1 0"/>
<feBlend mode="normal" in2="BackgroundImageFix" result="effect1_dropShadow_50_333"/>
<feBlend mode="normal" in="SourceGraphic" in2="effect1_dropShadow_50_333" result="shape"/>
</filter>
<clipPath id="clip0_50_333">
<rect width="192" height="98" fill="white"/>
</clipPath>
</defs>
</svg>
